<svg width="573" height="105" viewBox="0 0 573 105" fill="none" xmlns="http://www.w3.org/2000/svg">
<path d="M87.6316 0C97.7144 0 105.888 8.17375 105.888 18.2566V85.1974C105.888 95.2802 97.7144 103.454 87.6316 103.454H39.5512C44.9677 100.828 49.9834 97.5364 54.4346 93.6446C65.3288 84.1194 72.1822 71.5831 73.8476 58.1346C75.5129 44.6862 71.8892 31.1413 63.5831 19.7673C57.5242 11.4706 49.2408 4.69905 39.5464 0H87.6316Z" fill="white"/>
<path d="M0 13.0839C7.0461 12.0485 14.3165 12.5195 21.184 14.5114C30.856 17.3168 39.1422 22.9669 44.6549 30.5156C50.1676 38.0644 52.5731 47.0542 51.4679 55.9797C50.3626 64.9052 45.8139 73.2251 38.5837 79.5469C31.3534 85.8686 21.8799 89.809 11.7491 90.7076C7.80568 91.0574 3.85591 90.9356 0 90.3689V13.0839Z" fill="white"/>
<path d="M133.904 104.33C130.866 104.33 128.121 103.746 125.667 102.578C123.213 101.351 121.256 99.7442 119.796 97.7579C118.393 95.7132 117.692 93.4347 117.692 90.9226C117.692 86.8332 119.328 83.5908 122.6 81.1955C125.93 78.7418 130.311 77.1061 135.744 76.2882L147.75 74.5355V72.6953C147.75 70.2416 147.137 68.3429 145.91 66.9992C144.683 65.6555 142.58 64.9837 139.6 64.9837C137.497 64.9837 135.774 65.4218 134.43 66.2982C133.145 67.1161 132.181 68.2261 131.538 69.6282C131.071 70.3876 130.399 70.7674 129.523 70.7674H122.6C121.957 70.7674 121.461 70.5921 121.11 70.2416C120.818 69.8911 120.672 69.4237 120.672 68.8395C120.73 67.9047 121.11 66.7655 121.811 65.4218C122.512 64.0782 123.622 62.7929 125.141 61.5661C126.66 60.2808 128.617 59.2 131.012 58.3237C133.408 57.4474 136.299 57.0092 139.688 57.0092C143.368 57.0092 146.465 57.4766 148.977 58.4113C151.547 59.2876 153.592 60.4853 155.111 62.0042C156.63 63.5232 157.74 65.305 158.441 67.3497C159.142 69.3945 159.493 71.5561 159.493 73.8345V101.351C159.493 101.935 159.288 102.432 158.879 102.841C158.47 103.249 157.974 103.454 157.389 103.454H150.291C149.649 103.454 149.123 103.249 148.714 102.841C148.363 102.432 148.188 101.935 148.188 101.351V97.9332C147.429 99.0432 146.406 100.095 145.121 101.088C143.836 102.023 142.258 102.811 140.389 103.454C138.578 104.038 136.416 104.33 133.904 104.33ZM136.884 96.0053C138.928 96.0053 140.769 95.5671 142.404 94.6908C144.099 93.8145 145.413 92.4708 146.348 90.6597C147.341 88.7903 147.838 86.4534 147.838 83.6492V81.8089L139.074 83.2111C135.628 83.7368 133.057 84.5839 131.363 85.7524C129.669 86.9208 128.822 88.3521 128.822 90.0463C128.822 91.3316 129.201 92.4416 129.961 93.3763C130.779 94.2526 131.801 94.9245 133.028 95.3918C134.255 95.8008 135.54 96.0053 136.884 96.0053ZM172.838 103.454C172.254 103.454 171.757 103.249 171.348 102.841C170.939 102.432 170.735 101.935 170.735 101.351V60.0763C170.735 59.4337 170.939 58.9079 171.348 58.4989C171.757 58.09 172.254 57.8855 172.838 57.8855H179.936C180.52 57.8855 181.017 58.09 181.426 58.4989C181.893 58.9079 182.127 59.4337 182.127 60.0763V63.6692C183.471 61.7997 185.194 60.3684 187.297 59.3753C189.459 58.3821 191.942 57.8855 194.746 57.8855H198.339C198.981 57.8855 199.478 58.09 199.828 58.4989C200.237 58.9079 200.442 59.4045 200.442 59.9887V66.2982C200.442 66.8824 200.237 67.3789 199.828 67.7879C199.478 68.1968 198.981 68.4013 198.339 68.4013H191.503C188.699 68.4013 186.508 69.19 184.931 70.7674C183.412 72.3447 182.653 74.5063 182.653 77.2521V101.351C182.653 101.935 182.448 102.432 182.039 102.841C181.63 103.249 181.105 103.454 180.462 103.454H172.838ZM227.87 103.454C224.365 103.454 221.414 102.841 219.019 101.614C216.624 100.387 214.842 98.5758 213.674 96.1805C212.505 93.7268 211.921 90.6889 211.921 87.0668V67.1745H204.998C204.414 67.1745 203.917 66.97 203.508 66.5611C203.099 66.1521 202.895 65.6555 202.895 65.0713V59.9887C202.895 59.4045 203.099 58.9079 203.508 58.4989C203.917 58.09 204.414 57.8855 204.998 57.8855H211.921V43.3387C211.921 42.7545 212.096 42.2579 212.447 41.8489C212.856 41.44 213.381 41.2355 214.024 41.2355H221.122C221.706 41.2355 222.203 41.44 222.612 41.8489C223.021 42.2579 223.225 42.7545 223.225 43.3387V57.8855H234.179C234.764 57.8855 235.26 58.09 235.669 58.4989C236.078 58.9079 236.283 59.4045 236.283 59.9887V65.0713C236.283 65.6555 236.078 66.1521 235.669 66.5611C235.26 66.97 234.764 67.1745 234.179 67.1745H223.225V86.1905C223.225 88.5858 223.634 90.4553 224.452 91.7989C225.329 93.1426 226.818 93.8145 228.921 93.8145H234.968C235.552 93.8145 236.049 94.0189 236.458 94.4279C236.867 94.8368 237.071 95.3334 237.071 95.9176V101.351C237.071 101.935 236.867 102.432 236.458 102.841C236.049 103.249 235.552 103.454 234.968 103.454H227.87ZM305.311 104.894C296.383 104.894 288.895 103.598 282.847 101.006C276.895 98.3179 272.335 94.8619 269.167 90.6379C266.095 86.3179 264.463 81.8059 264.271 77.1019C264.271 76.2379 264.559 75.5179 265.135 74.9419C265.711 74.3659 266.431 74.0779 267.295 74.0779H280.111C281.359 74.0779 282.271 74.3659 282.847 74.9419C283.519 75.4219 284.095 76.0459 284.575 76.8139C285.151 78.6379 286.255 80.4619 287.887 82.2859C289.519 84.0139 291.727 85.4539 294.511 86.6059C297.391 87.7579 300.991 88.3339 305.311 88.3339C312.223 88.3339 317.359 87.1819 320.719 84.8779C324.175 82.5739 325.903 79.4539 325.903 75.5179C325.903 72.7339 324.991 70.5259 323.167 68.8939C321.343 67.1659 318.511 65.6299 314.671 64.2859C310.927 62.8459 305.935 61.3579 299.695 59.8219C292.495 58.0939 286.447 56.0299 281.551 53.6299C276.751 51.1339 273.103 48.0139 270.607 44.2699C268.207 40.5259 267.007 35.7739 267.007 30.0139C267.007 24.4459 268.495 19.5019 271.471 15.1819C274.543 10.8619 278.863 7.45394 284.431 4.95795C290.095 2.46194 296.815 1.21394 304.591 1.21394C310.831 1.21394 316.351 2.07794 321.151 3.80594C325.951 5.43795 329.935 7.64595 333.103 10.4299C336.271 13.1179 338.671 16.0459 340.303 19.2139C342.031 22.2859 342.943 25.3099 343.039 28.2859C343.039 29.0539 342.751 29.7739 342.175 30.4459C341.695 31.0219 340.975 31.3099 340.015 31.3099H326.623C325.855 31.3099 325.087 31.1179 324.319 30.7339C323.551 30.3499 322.927 29.6299 322.447 28.5739C321.871 25.5979 319.999 23.0539 316.831 20.9419C313.663 18.8299 309.583 17.7739 304.591 17.7739C299.407 17.7739 295.231 18.7339 292.063 20.6539C288.895 22.5739 287.311 25.5499 287.311 29.5819C287.311 32.2699 288.079 34.5259 289.615 36.3499C291.247 38.0779 293.791 39.6139 297.247 40.9579C300.799 42.3019 305.455 43.7419 311.215 45.2779C319.375 47.1019 326.047 49.2139 331.231 51.6139C336.415 54.0139 340.207 57.0859 342.607 60.8299C345.007 64.4779 346.207 69.1339 346.207 74.7979C346.207 81.1339 344.479 86.5579 341.023 91.0699C337.663 95.4859 332.911 98.8939 326.767 101.294C320.623 103.694 313.471 104.894 305.311 104.894ZM377.854 103.454C374.349 103.454 371.399 102.841 369.004 101.614C366.608 100.387 364.826 98.5758 363.658 96.1805C362.49 93.7268 361.905 90.6889 361.905 87.0668V67.1745H354.982C354.398 67.1745 353.902 66.97 353.493 66.5611C353.084 66.1521 352.879 65.6555 352.879 65.0713V59.9887C352.879 59.4045 353.084 58.9079 353.493 58.4989C353.902 58.09 354.398 57.8855 354.982 57.8855H361.905V43.3387C361.905 42.7545 362.081 42.2579 362.431 41.8489C362.84 41.44 363.366 41.2355 364.009 41.2355H371.107C371.691 41.2355 372.187 41.44 372.596 41.8489C373.005 42.2579 373.21 42.7545 373.21 43.3387V57.8855H384.164C384.748 57.8855 385.245 58.09 385.654 58.4989C386.062 58.9079 386.267 59.4045 386.267 59.9887V65.0713C386.267 65.6555 386.062 66.1521 385.654 66.5611C385.245 66.97 384.748 67.1745 384.164 67.1745H373.21V86.1905C373.21 88.5858 373.619 90.4553 374.437 91.7989C375.313 93.1426 376.803 93.8145 378.906 93.8145H384.952C385.537 93.8145 386.033 94.0189 386.442 94.4279C386.851 94.8368 387.056 95.3334 387.056 95.9176V101.351C387.056 101.935 386.851 102.432 386.442 102.841C386.033 103.249 385.537 103.454 384.952 103.454H377.854ZM411.742 104.33C408.179 104.33 405.082 103.542 402.453 101.964C399.883 100.328 397.897 98.05 396.495 95.1289C395.092 92.1495 394.391 88.6442 394.391 84.6132V59.9887C394.391 59.4045 394.596 58.9079 395.005 58.4989C395.414 58.09 395.91 57.8855 396.495 57.8855H404.206C404.849 57.8855 405.345 58.09 405.696 58.4989C406.105 58.9079 406.309 59.4045 406.309 59.9887V84.0874C406.309 91.3316 409.493 94.9537 415.861 94.9537C418.899 94.9537 421.294 93.9897 423.047 92.0618C424.858 90.1339 425.763 87.4758 425.763 84.0874V59.9887C425.763 59.4045 425.968 58.9079 426.377 58.4989C426.786 58.09 427.282 57.8855 427.867 57.8855H435.578C436.162 57.8855 436.659 58.09 437.068 58.4989C437.477 58.9079 437.681 59.4045 437.681 59.9887V101.351C437.681 101.935 437.477 102.432 437.068 102.841C436.659 103.249 436.162 103.454 435.578 103.454H428.48C427.837 103.454 427.312 103.249 426.903 102.841C426.552 102.432 426.377 101.935 426.377 101.351V97.7579C424.8 99.8026 422.842 101.409 420.506 102.578C418.169 103.746 415.248 104.33 411.742 104.33ZM466.17 104.33C463.132 104.33 460.445 103.834 458.108 102.841C455.829 101.789 453.931 100.328 452.412 98.4589C450.893 96.5895 449.724 94.3987 448.906 91.8866C448.089 89.3161 447.621 86.5118 447.504 83.4739C447.446 82.4224 447.417 81.4876 447.417 80.6697C447.417 79.7934 447.446 78.8295 447.504 77.7779C447.621 74.8568 448.059 72.1403 448.819 69.6282C449.637 67.1161 450.805 64.9253 452.324 63.0558C453.901 61.1279 455.829 59.6382 458.108 58.5866C460.445 57.535 463.132 57.0092 466.17 57.0092C469.325 57.0092 471.983 57.5642 474.144 58.6742C476.364 59.7258 478.205 61.0987 479.665 62.7929V43.3387C479.665 42.7545 479.84 42.2579 480.191 41.8489C480.6 41.44 481.126 41.2355 481.768 41.2355H489.217C489.801 41.2355 490.298 41.44 490.707 41.8489C491.116 42.2579 491.32 42.7545 491.32 43.3387V101.351C491.32 101.935 491.116 102.432 490.707 102.841C490.298 103.249 489.801 103.454 489.217 103.454H482.294C481.651 103.454 481.126 103.249 480.717 102.841C480.366 102.432 480.191 101.935 480.191 101.351V98.1084C478.73 99.9195 476.861 101.409 474.582 102.578C472.362 103.746 469.558 104.33 466.17 104.33ZM469.412 94.9537C471.866 94.9537 473.823 94.3987 475.284 93.2887C476.744 92.1787 477.825 90.7766 478.526 89.0824C479.227 87.3297 479.607 85.5479 479.665 83.7368C479.724 82.6853 479.753 81.5753 479.753 80.4068C479.753 79.18 479.724 78.0408 479.665 76.9892C479.607 75.2366 479.198 73.5716 478.438 71.9942C477.679 70.3584 476.569 69.0147 475.108 67.9632C473.648 66.9116 471.749 66.3858 469.412 66.3858C466.959 66.3858 465.001 66.9408 463.541 68.0508C462.139 69.1024 461.116 70.5045 460.474 72.2571C459.831 74.0097 459.451 75.9376 459.335 78.0408C459.276 79.7934 459.276 81.5461 459.335 83.2987C459.451 85.4018 459.831 87.3297 460.474 89.0824C461.116 90.835 462.139 92.2663 463.541 93.3763C465.001 94.4279 466.959 94.9537 469.412 94.9537ZM505.103 103.454C504.519 103.454 504.022 103.249 503.613 102.841C503.204 102.432 503 101.935 503 101.351V59.9887C503 59.4045 503.204 58.9079 503.613 58.4989C504.022 58.09 504.519 57.8855 505.103 57.8855H512.376C513.019 57.8855 513.516 58.09 513.866 58.4989C514.275 58.9079 514.479 59.4045 514.479 59.9887V101.351C514.479 101.935 514.275 102.432 513.866 102.841C513.516 103.249 513.019 103.454 512.376 103.454H505.103ZM504.752 50.3492C504.11 50.3492 503.584 50.1739 503.175 49.8234C502.824 49.4145 502.649 48.8887 502.649 48.2461V41.9366C502.649 41.3524 502.824 40.8558 503.175 40.4468C503.584 40.0379 504.11 39.8334 504.752 39.8334H512.727C513.369 39.8334 513.895 40.0379 514.304 40.4468C514.713 40.8558 514.918 41.3524 514.918 41.9366V48.2461C514.918 48.8887 514.713 49.4145 514.304 49.8234C513.895 50.1739 513.369 50.3492 512.727 50.3492H504.752ZM546.261 104.33C541.587 104.33 537.644 103.512 534.431 101.877C531.276 100.241 528.852 97.9332 527.157 94.9537C525.522 91.9742 524.587 88.4982 524.353 84.5255C524.295 83.4739 524.265 82.1887 524.265 80.6697C524.265 79.1508 524.295 77.8655 524.353 76.8139C524.587 72.7829 525.551 69.3068 527.245 66.3858C528.998 63.4063 531.451 61.0987 534.606 59.4629C537.819 57.8271 541.704 57.0092 546.261 57.0092C550.818 57.0092 554.674 57.8271 557.828 59.4629C561.042 61.0987 563.495 63.4063 565.189 66.3858C566.942 69.3068 567.935 72.7829 568.169 76.8139C568.227 77.8655 568.257 79.1508 568.257 80.6697C568.257 82.1887 568.227 83.4739 568.169 84.5255C567.935 88.4982 566.971 91.9742 565.277 94.9537C563.641 97.9332 561.217 100.241 558.004 101.877C554.849 103.512 550.935 104.33 546.261 104.33ZM546.261 95.6547C549.357 95.6547 551.753 94.6908 553.447 92.7629C555.141 90.7766 556.076 87.8847 556.251 84.0874C556.309 83.2111 556.339 82.0718 556.339 80.6697C556.339 79.2676 556.309 78.1284 556.251 77.2521C556.076 73.5132 555.141 70.6505 553.447 68.6642C551.753 66.6779 549.357 65.6847 546.261 65.6847C543.165 65.6847 540.769 66.6779 539.075 68.6642C537.381 70.6505 536.446 73.5132 536.271 77.2521C536.213 78.1284 536.183 79.2676 536.183 80.6697C536.183 82.0718 536.213 83.2111 536.271 84.0874C536.446 87.8847 537.381 90.7766 539.075 92.7629C540.769 94.6908 543.165 95.6547 546.261 95.6547Z" fill="white"/>
</svg>
