<svg width="727" height="613" viewBox="0 0 727 613" fill="none" xmlns="http://www.w3.org/2000/svg">
<path opacity="0.010101" d="M236.289 310.676C230.722 304.91 229.5 296.216 233.263 289.139L348.605 72.2119C352.368 65.1354 360.259 61.2863 368.152 62.678L610.104 105.341C617.997 106.733 624.096 113.049 625.212 120.985L659.405 364.28C660.52 372.216 656.398 379.969 649.194 383.482L428.374 491.184C421.171 494.697 412.524 493.172 406.957 487.407L236.289 310.676Z" stroke="url(#paint0_linear_40_2)" stroke-width="3"/>
<path opacity="0.020202" d="M233.456 307.626C227.99 301.764 226.92 293.05 230.805 286.04L349.673 71.5968C353.558 64.5871 361.516 60.8763 369.383 62.4055L610.062 109.189C617.929 110.719 623.917 117.139 624.894 125.094L654.775 368.451C655.751 376.406 651.495 384.085 644.231 387.473L422.019 491.091C414.755 494.479 406.136 492.803 400.67 486.942L233.456 307.626Z" stroke="url(#paint1_linear_40_2)" stroke-width="3"/>
<path opacity="0.030303" d="M230.691 304.579C225.328 298.623 224.41 289.891 228.417 282.95L350.758 71.0488C354.765 64.108 362.786 60.5367 370.626 62.2029L609.962 113.076C617.801 114.742 623.676 121.267 624.514 129.238L650.09 372.58C650.928 380.551 646.538 388.155 639.216 391.414L415.688 490.936C408.366 494.196 399.778 492.37 394.415 486.414L230.691 304.579Z" stroke="url(#paint2_linear_40_2)" stroke-width="3"/>
<path opacity="0.040404" d="M227.994 301.538C222.736 295.489 221.971 286.742 226.099 279.872L351.861 70.5681C355.989 63.6982 364.072 60.2673 371.881 62.0702L609.803 116.999C617.612 118.802 623.373 125.429 624.071 133.413L645.353 376.665C646.052 384.649 641.53 392.175 634.152 395.307L409.383 490.716C402.005 493.848 393.449 491.872 388.191 485.824L227.994 301.538Z" stroke="url(#paint3_linear_40_2)" stroke-width="3"/>
<path opacity="0.050505" d="M225.367 298.502C220.215 292.362 219.603 283.604 223.85 276.807L352.98 70.1541C357.228 63.3574 365.368 60.0681 373.145 62.007L609.586 120.959C617.363 122.898 623.006 129.624 623.565 137.619L640.564 380.705C641.123 388.7 636.47 396.147 629.039 399.149L403.103 490.432C395.672 493.435 387.153 491.311 382.001 485.172L225.367 298.502Z" stroke="url(#paint4_linear_40_2)" stroke-width="3"/>
<path opacity="0.0606061" d="M222.808 295.472C217.764 289.244 217.305 280.476 221.67 273.754L354.114 69.8065C358.479 63.085 366.676 59.9383 374.417 62.0125L609.31 124.952C617.051 127.026 622.577 133.85 622.996 141.854L635.723 384.699C636.143 392.703 631.361 400.066 623.878 402.939L396.852 490.086C389.369 492.958 380.889 490.686 375.845 484.457L222.808 295.472Z" stroke="url(#paint5_linear_40_2)" stroke-width="3"/>
<path opacity="0.0707071" d="M220.317 292.45C215.382 286.134 215.076 277.359 219.558 270.715L355.261 69.5261C359.742 62.8818 367.993 59.8787 375.697 62.0877L608.973 128.979C616.677 131.188 622.083 138.107 622.363 146.116L630.832 388.646C631.112 396.656 626.202 403.935 618.671 406.676L390.629 489.677C383.097 492.418 374.657 489.997 369.723 483.682L220.317 292.45Z" stroke="url(#paint6_linear_40_2)" stroke-width="3"/>
<path opacity="0.0808081" d="M217.893 289.438C213.07 283.037 212.917 274.259 217.514 267.693L356.419 69.3142C361.016 62.749 369.318 59.8914 376.982 62.2345L608.577 133.039C616.241 135.383 621.525 142.395 621.665 150.408L625.892 392.547C626.031 400.561 620.995 407.753 613.417 410.362L384.435 489.207C376.857 491.816 368.461 489.25 363.638 482.849L217.893 289.438Z" stroke="url(#paint7_linear_40_2)" stroke-width="3"/>
<path opacity="0.0909091" d="M215.537 286.437C210.826 279.953 210.826 271.172 215.537 264.688L357.59 69.1689C362.301 62.6853 370.651 59.9726 378.274 62.4492L608.119 137.131C615.742 139.607 620.902 146.71 620.903 154.725V396.399C620.903 404.414 615.742 411.517 608.119 413.994L378.274 488.676C370.651 491.152 362.301 488.439 357.59 481.955L215.537 286.437Z" stroke="url(#paint8_linear_40_2)" stroke-width="3"/>
<path opacity="0.10101" d="M213.249 283.445C208.652 276.88 208.805 268.101 213.628 261.7L358.77 69.0917C363.593 62.6908 371.989 60.1236 379.567 62.7329L607.601 141.251C615.179 143.86 620.215 151.053 620.075 159.066L615.866 400.202C615.726 408.216 610.442 415.228 602.778 417.571L372.143 488.083C364.478 490.426 356.177 487.568 351.58 481.003L213.249 283.445Z" stroke="url(#paint9_linear_40_2)" stroke-width="3"/>
<path opacity="0.111111" d="M211.027 280.468C206.545 273.824 206.851 265.049 211.786 258.733L359.958 69.082C364.892 62.7664 373.332 60.3461 380.863 63.0872L607.021 145.401C614.552 148.142 619.462 155.422 619.182 163.431L610.783 403.957C610.503 411.966 605.098 418.885 597.393 421.095L366.045 487.433C358.341 489.642 350.09 486.639 345.608 479.995L211.027 280.468Z" stroke="url(#paint10_linear_40_2)" stroke-width="3"/>
<path opacity="0.121212" d="M208.871 277.504C204.506 270.782 204.966 262.015 210.01 255.786L361.153 69.1386C366.197 62.9101 374.678 60.6376 382.16 63.5096L606.379 149.579C613.861 152.451 618.643 159.815 618.224 167.819L605.654 407.659C605.235 415.663 599.709 422.487 591.968 424.561L359.98 486.722C352.239 488.796 344.042 485.649 339.677 478.928L208.871 277.504Z" stroke="url(#paint11_linear_40_2)" stroke-width="3"/>
<path opacity="0.131313" d="M206.782 274.556C202.535 267.76 203.147 259.001 208.299 252.861L362.355 69.264C367.507 63.1244 376.026 61.0001 383.457 64.0025L605.674 153.784C613.105 156.786 617.758 164.232 617.199 172.227L600.481 411.312C599.922 419.308 594.278 426.034 586.501 427.973L353.952 485.954C346.175 487.892 338.034 484.604 333.787 477.807L206.782 274.556Z" stroke="url(#paint12_linear_40_2)" stroke-width="3"/>
<path opacity="0.141414" d="M204.758 271.623C200.631 264.753 201.396 256.007 206.654 249.958L363.562 69.4564C368.82 63.4076 377.375 61.4324 384.752 64.564L604.907 158.015C612.285 161.146 616.807 168.672 616.109 176.655L595.264 414.913C594.565 422.898 588.805 429.524 580.996 431.327L347.958 485.128C340.149 486.931 332.067 483.5 327.939 476.631L204.758 271.623Z" stroke="url(#paint13_linear_40_2)" stroke-width="3"/>
<path opacity="0.151515" d="M202.8 268.708C198.793 261.767 199.711 253.035 205.073 247.079L364.772 69.7158C370.135 63.7597 378.723 61.9341 386.045 65.1939L604.078 162.268C611.399 165.528 615.789 173.132 614.952 181.103L590.004 418.461C589.166 426.432 583.291 432.957 575.452 434.624L342.001 484.245C334.161 485.911 326.14 482.34 322.133 475.399L202.8 268.708Z" stroke="url(#paint14_linear_40_2)" stroke-width="3"/>
<path opacity="0.161616" d="M200.907 265.812C197.021 258.802 198.091 250.088 203.557 244.226L365.985 70.0429C371.451 64.1814 380.07 62.506 387.333 65.893L603.184 166.546C610.448 169.933 614.705 177.612 613.728 185.567L584.703 421.957C583.726 429.912 577.738 436.333 569.871 437.863L336.081 483.306C328.214 484.835 320.256 481.125 316.371 474.116L200.907 265.812Z" stroke="url(#paint15_linear_40_2)" stroke-width="3"/>
<path opacity="0.171717" d="M199.078 262.935C195.315 255.858 196.537 247.163 202.104 241.398L367.2 70.4378C372.767 64.6727 381.414 63.1477 388.617 66.6611L602.227 170.846C609.431 174.36 613.553 182.112 612.438 190.049L579.361 425.399C578.246 433.336 572.147 439.652 564.254 441.043L330.201 482.314C322.308 483.705 314.417 479.856 310.654 472.78L199.078 262.935Z" stroke="url(#paint16_linear_40_2)" stroke-width="3"/>
<path opacity="0.181818" d="M197.312 260.078C193.674 252.937 195.047 244.265 200.715 238.598L368.413 70.8992C374.081 65.2321 382.753 63.8583 389.894 67.4969L601.207 175.166C608.348 178.805 612.334 186.628 611.08 194.544L573.98 428.786C572.726 436.702 566.518 442.911 558.602 444.165L324.359 481.265C316.443 482.519 308.62 478.533 304.982 471.391L197.312 260.078Z" stroke="url(#paint17_linear_40_2)" stroke-width="3"/>
<path opacity="0.191919" d="M195.61 257.244C192.097 250.041 193.622 241.394 199.387 235.827L369.626 71.428C375.392 65.8607 384.086 64.6385 391.163 68.4011L600.122 179.507C607.198 183.27 611.047 191.162 609.656 199.054L568.56 432.119C567.168 440.012 560.852 446.111 552.916 447.227L318.558 480.164C310.621 481.28 302.869 477.157 299.355 469.954L195.61 257.244Z" stroke="url(#paint18_linear_40_2)" stroke-width="3"/>
<path opacity="0.20202" d="M193.971 254.432C190.584 247.168 192.26 238.549 198.121 233.083L370.837 72.0222C376.698 66.5563 385.413 65.4862 392.423 69.3716L598.973 183.864C605.983 187.75 609.693 195.708 608.164 203.575L563.103 435.395C561.574 443.263 555.152 449.251 547.197 450.228L312.797 479.008C304.843 479.985 297.163 475.728 293.776 468.464L193.971 254.432Z" stroke="url(#paint19_linear_40_2)" stroke-width="3"/>
<path opacity="0.212121" d="M192.395 251.644C189.135 244.322 190.961 235.734 196.917 230.371L372.044 72.6851C378 67.3224 386.732 66.4046 393.673 70.4116L597.76 188.242C604.7 192.249 608.272 200.269 606.605 208.109L557.609 438.617C555.943 446.457 549.418 452.332 541.447 453.17L307.079 477.802C299.109 478.64 291.505 474.251 288.245 466.929L192.395 251.644Z" stroke="url(#paint20_linear_40_2)" stroke-width="3"/>
<path opacity="0.222222" d="M190.88 248.881C187.749 241.503 189.724 232.948 195.772 227.69L373.248 73.4131C379.296 68.1553 388.043 67.3906 394.913 71.5184L596.482 192.633C603.351 196.761 606.782 204.843 604.979 212.652L552.081 441.781C550.278 449.59 543.651 455.351 535.667 456.049L301.405 476.545C293.421 477.244 285.895 472.721 282.763 465.344L190.88 248.881Z" stroke="url(#paint21_linear_40_2)" stroke-width="3"/>
<path opacity="0.232323" d="M189.426 246.144C186.424 238.713 188.548 230.194 194.688 225.042L374.444 74.2082C380.584 69.0566 389.342 68.4448 396.139 72.6919L595.139 197.04C601.935 201.287 605.224 209.428 603.285 217.204L546.517 444.889C544.578 452.666 537.852 458.31 529.857 458.869L295.773 475.238C287.778 475.797 280.332 471.144 277.33 463.713L189.426 246.144Z" stroke="url(#paint22_linear_40_2)" stroke-width="3"/>
<path opacity="0.242424" d="M188.033 243.435C185.161 235.953 187.434 227.472 193.662 222.428L375.634 75.0693C381.862 70.0256 390.63 69.5668 397.352 73.9318L593.731 201.461C600.452 205.826 603.599 214.024 601.524 221.765L540.921 447.94C538.847 455.681 532.023 461.207 524.02 461.626L290.186 473.881C282.182 474.3 274.819 469.519 271.946 462.037L188.033 243.435Z" stroke="url(#paint23_linear_40_2)" stroke-width="3"/>
<path opacity="0.252525" d="M186.7 240.752C183.959 233.221 186.379 224.781 192.695 219.847L376.815 75.9963C383.131 71.062 391.905 70.7555 398.55 75.2371L592.258 205.894C598.902 210.376 601.905 218.626 599.696 226.33L535.293 450.931C533.083 458.636 526.164 464.041 518.155 464.321L284.643 472.476C276.634 472.755 269.355 467.845 266.614 460.314L186.7 240.752Z" stroke="url(#paint24_linear_40_2)" stroke-width="3"/>
<path opacity="0.262626" d="M185.427 238.099C182.817 230.521 185.384 222.125 191.785 217.302L377.988 76.988C384.389 72.1646 393.168 72.0112 399.733 76.6082L590.719 210.339C597.284 214.936 600.143 223.237 597.8 230.901L529.633 453.865C527.29 461.529 520.278 466.813 512.264 466.953L279.148 471.022C271.135 471.162 263.943 466.126 261.333 458.548L185.427 238.099Z" stroke="url(#paint25_linear_40_2)" stroke-width="3"/>
<path opacity="0.272727" d="M184.212 235.477C181.735 227.855 184.448 219.504 190.932 214.794L379.15 78.0453C385.634 73.3344 394.414 73.3342 400.898 78.0451L589.116 214.793C595.6 219.504 598.313 227.855 595.837 235.477L523.944 456.741C521.467 464.363 514.364 469.523 506.35 469.523L273.699 469.524C265.684 469.524 258.581 464.363 256.104 456.74L184.212 235.477Z" stroke="url(#paint26_linear_40_2)" stroke-width="3"/>
<path opacity="0.282828" d="M183.055 232.885C180.712 225.22 183.571 216.919 190.136 212.322L380.3 79.1672C386.866 74.5702 395.644 74.7233 402.045 79.5466L587.448 219.257C593.849 224.08 596.416 232.477 593.806 240.055L518.226 459.556C515.617 467.134 508.424 472.169 500.411 472.03L268.297 467.978C260.284 467.838 253.272 462.554 250.929 454.89L183.055 232.885Z" stroke="url(#paint27_linear_40_2)" stroke-width="3"/>
<path opacity="0.292929" d="M181.956 230.326C179.747 222.622 182.75 214.371 189.394 209.89L381.438 80.3542C388.082 75.8725 396.857 76.1788 403.173 81.113L585.713 223.729C592.029 228.664 594.449 237.104 591.707 244.635L512.479 462.312C509.738 469.844 502.459 474.753 494.45 474.473L262.944 466.389C254.934 466.109 248.015 460.704 245.806 453L181.956 230.326Z" stroke="url(#paint28_linear_40_2)" stroke-width="3"/>
<path opacity="0.30303" d="M180.913 227.799C178.839 220.057 181.985 211.861 188.707 207.495L382.562 81.6044C389.284 77.2394 398.052 77.6987 404.281 82.7424L583.914 228.207C590.143 233.251 592.415 241.732 589.543 249.214L506.707 465.008C503.835 472.49 496.472 477.271 488.468 476.852L257.64 464.756C249.636 464.336 242.813 458.81 240.738 451.069L180.913 227.799Z" stroke="url(#paint29_linear_40_2)" stroke-width="3"/>
<path opacity="0.313131" d="M179.927 225.307C177.988 217.531 181.277 209.39 188.073 205.143L383.671 82.9193C390.468 78.6722 399.227 79.2845 405.366 84.4362L582.05 232.692C588.189 237.844 590.313 246.363 587.311 253.794L500.91 467.644C497.908 475.075 490.462 479.727 482.467 479.168L252.384 463.079C244.389 462.52 237.664 456.877 235.725 449.1L179.927 225.307Z" stroke="url(#paint30_linear_40_2)" stroke-width="3"/>
<path opacity="0.323232" d="M178.995 222.848C177.193 215.039 180.623 206.956 187.493 202.829L384.764 84.2962C391.634 80.1684 400.38 80.9335 406.429 86.1915L580.12 237.179C586.169 242.437 588.144 250.992 585.012 258.37L495.088 470.218C491.957 477.595 484.431 482.117 476.447 481.418L247.18 461.36C239.195 460.662 232.569 454.902 230.766 447.093L178.995 222.848Z" stroke="url(#paint31_linear_40_2)" stroke-width="3"/>
<path opacity="0.333333" d="M178.119 220.426C176.452 212.587 180.023 204.566 186.964 200.558L385.839 85.7371C392.78 81.7298 401.512 82.6476 407.468 88.0102L578.125 241.671C584.081 247.034 585.907 255.622 582.647 262.943L489.243 472.732C485.983 480.054 478.38 484.443 470.409 483.605L242.025 459.602C234.054 458.764 227.53 452.889 225.863 445.05L178.119 220.426Z" stroke="url(#paint32_linear_40_2)" stroke-width="3"/>
<path opacity="0.343434" d="M177.296 218.04C175.766 210.173 179.477 202.216 186.487 198.33L386.897 87.2399C393.907 83.3543 402.622 84.4245 408.484 89.8905L576.066 246.164C581.927 251.63 583.602 260.249 580.215 267.513L483.376 475.184C479.989 482.448 472.31 486.704 464.355 485.727L236.923 457.803C228.968 456.826 222.546 450.838 221.017 442.97L177.296 218.04Z" stroke="url(#paint33_linear_40_2)" stroke-width="3"/>
<path opacity="0.353535" d="M176.526 215.692C175.134 207.799 178.983 199.908 186.06 196.145L387.936 88.806C395.012 85.0435 403.707 86.2652 409.472 91.8326L573.941 250.658C579.706 256.226 581.231 264.873 577.718 272.076L477.488 477.576C473.975 484.78 466.223 488.902 458.286 487.786L231.872 455.966C223.936 454.851 217.62 448.751 216.228 440.859L176.526 215.692Z" stroke="url(#paint34_linear_40_2)" stroke-width="3"/>
<path opacity="0.363636" d="M175.808 213.383C174.554 205.467 178.54 197.644 185.682 194.005L388.954 90.4324C396.095 86.794 404.767 88.1673 410.434 93.8344L571.751 255.153C577.418 260.82 578.792 269.492 575.153 276.633L471.581 479.905C467.942 487.046 460.119 491.033 452.203 489.779L226.875 454.09C218.959 452.836 212.75 446.628 211.496 438.712L175.808 213.383Z" stroke="url(#paint35_linear_40_2)" stroke-width="3"/>
<path opacity="0.373737" d="M175.142 211.113C174.027 203.176 178.149 195.424 185.352 191.911L389.95 92.1207C397.153 88.6074 405.8 90.132 411.368 95.897L569.497 259.645C575.065 265.41 576.286 274.105 572.524 281.182L465.655 482.173C461.892 489.249 454.001 493.099 446.108 491.707L221.93 452.178C214.037 450.786 207.938 444.471 206.822 436.534L175.142 211.113Z" stroke="url(#paint36_linear_40_2)" stroke-width="3"/>
<path opacity="0.383838" d="M174.527 208.882C173.55 200.927 177.806 193.248 185.07 189.861L390.924 93.8686C398.188 90.4815 406.806 92.1576 412.272 98.019L567.178 264.135C572.644 269.997 573.714 278.711 569.829 285.72L459.711 484.378C455.826 491.387 447.868 495.098 440.001 493.569L217.039 450.229C209.172 448.7 203.183 442.278 202.207 434.324L174.527 208.882Z" stroke="url(#paint37_linear_40_2)" stroke-width="3"/>
<path opacity="0.393939" d="M173.961 206.692C173.123 198.722 177.513 191.118 184.835 187.858L391.875 95.6777C399.197 92.4181 407.785 94.2441 413.148 100.2L564.795 268.621C570.158 274.577 571.076 283.309 567.068 290.25L453.751 486.521C449.744 493.462 441.723 497.033 433.884 495.367L212.203 448.247C204.363 446.58 198.489 440.055 197.651 432.085L173.961 206.692Z" stroke="url(#paint38_linear_40_2)" stroke-width="3"/>
<path opacity="0.40404" d="M173.444 204.544C172.746 196.56 177.268 189.034 184.646 185.902L392.801 97.5455C400.178 94.4139 408.734 96.3888 413.992 102.438L562.348 273.102C567.606 279.151 568.371 287.897 564.243 294.766L447.776 488.6C443.649 495.47 435.566 498.901 427.757 497.098L207.421 446.229C199.612 444.426 193.851 437.8 193.153 429.816L173.444 204.544Z" stroke="url(#paint39_linear_40_2)" stroke-width="3"/>
<path opacity="0.414141" d="M172.976 202.439C172.417 194.444 177.07 186.998 184.501 183.996L393.701 99.4727C401.133 96.4704 409.652 98.5943 414.804 104.734L559.837 277.577C564.988 283.717 565.601 292.476 561.354 299.272L441.787 490.618C437.54 497.415 429.399 500.704 421.623 498.765L202.694 444.18C194.918 442.241 189.274 435.515 188.715 427.52L172.976 202.439Z" stroke="url(#paint40_linear_40_2)" stroke-width="3"/>
<path opacity="0.424242" d="M172.555 200.377C172.135 192.374 176.917 185.01 184.4 182.138L394.576 101.458C402.058 98.5859 410.539 100.858 415.583 107.087L557.262 282.045C562.306 288.274 562.765 297.042 558.4 303.763L435.785 492.573C431.42 499.295 423.223 502.441 415.482 500.367L198.023 442.099C190.282 440.024 184.756 433.201 184.337 425.197L172.555 200.377Z" stroke="url(#paint41_linear_40_2)" stroke-width="3"/>
<path opacity="0.434343" d="M172.18 198.358C171.901 190.348 176.81 183.069 184.342 180.328L395.423 103.501C402.954 100.76 411.394 103.18 416.329 109.496L554.623 286.505C559.558 292.821 559.864 301.595 555.382 308.24L429.772 494.465C425.29 501.109 417.039 504.112 409.335 501.903L193.409 439.988C185.705 437.779 180.3 430.859 180.02 422.85L172.18 198.358Z" stroke="url(#paint42_linear_40_2)" stroke-width="3"/>
<path opacity="0.444444" d="M171.851 196.385C171.711 188.371 176.747 181.179 184.325 178.57L396.241 105.601C403.819 102.992 412.216 105.559 417.039 111.96L551.922 290.955C556.745 297.356 556.898 306.135 552.301 312.7L423.748 496.294C419.15 502.859 410.849 505.718 403.184 503.375L188.851 437.846C181.186 435.503 175.903 428.491 175.763 420.477L171.851 196.385Z" stroke="url(#paint43_linear_40_2)" stroke-width="3"/>
<path opacity="0.454545" d="M171.567 194.457C171.567 186.443 176.727 179.34 184.35 176.863L397.03 107.758C404.653 105.282 413.003 107.995 417.714 114.479L549.158 295.396C553.868 301.88 553.869 310.66 549.158 317.143L417.714 498.061C413.003 504.545 404.653 507.258 397.03 504.781L184.35 435.677C176.728 433.2 171.566 426.097 171.566 418.083L171.567 194.457Z" stroke="url(#paint44_linear_40_2)" stroke-width="3"/>
<path opacity="0.464646" d="M171.326 192.575C171.466 184.561 176.75 177.549 184.415 175.206L397.789 109.971C405.453 107.628 413.755 110.486 418.352 117.051L546.331 299.824C550.928 306.389 550.775 315.168 545.951 321.569L411.672 499.764C406.849 506.165 398.452 508.732 390.874 506.122L179.906 433.48C172.328 430.871 167.292 423.678 167.432 415.665L171.326 192.575Z" stroke="url(#paint45_linear_40_2)" stroke-width="3"/>
<path opacity="0.474747" d="M171.129 190.739C171.408 182.729 176.814 175.811 184.518 173.602L398.517 112.239C406.221 110.03 414.472 113.032 418.953 119.677L543.442 304.239C547.924 310.883 547.617 319.658 542.683 325.974L405.623 501.403C400.688 507.719 392.248 510.139 384.717 507.398L175.52 431.256C167.989 428.515 163.08 421.236 163.359 413.226L171.129 190.739Z" stroke="url(#paint46_linear_40_2)" stroke-width="3"/>
<path opacity="0.484848" d="M170.972 188.952C171.392 180.948 176.917 174.124 184.659 172.05L399.212 114.561C406.953 112.486 415.15 115.633 419.515 122.354L540.491 308.641C544.856 315.363 544.397 324.131 539.353 330.36L399.567 502.98C394.524 509.209 386.043 511.481 378.56 508.609L171.193 429.007C163.71 426.135 158.928 418.772 159.347 410.769L170.972 188.952Z" stroke="url(#paint47_linear_40_2)" stroke-width="3"/>
<path opacity="0.494949" d="M170.857 187.211C171.416 179.216 177.06 172.49 184.837 170.551L399.874 116.936C407.65 114.997 415.791 118.286 420.038 125.083L537.479 313.027C541.726 319.824 541.114 328.583 535.962 334.723L393.507 504.494C388.356 510.633 379.836 512.757 372.405 509.755L166.922 426.735C159.491 423.732 154.839 416.286 155.398 408.291L170.857 187.211Z" stroke="url(#paint48_linear_40_2)" stroke-width="3"/>
<path opacity="0.50505" d="M170.783 185.52C171.481 177.536 177.242 170.91 185.051 169.107L400.502 119.366C408.311 117.563 416.393 120.993 420.521 127.863L534.406 317.4C538.533 324.27 537.768 333.017 532.51 339.065L387.444 505.945C382.185 511.994 373.63 513.969 366.253 510.838L162.712 424.439C155.334 421.307 150.812 413.781 151.511 405.797L170.783 185.52Z" stroke="url(#paint49_linear_40_2)" stroke-width="3"/>
<path opacity="0.515152" d="M170.747 183.879C171.585 175.908 177.46 169.383 185.299 167.717L401.095 121.847C408.934 120.181 416.956 123.752 420.963 130.693L531.272 321.754C535.279 328.695 534.361 337.427 528.999 343.383L381.377 507.334C376.014 513.29 367.426 515.115 360.104 511.855L158.559 422.122C151.238 418.862 146.848 411.258 147.685 403.287L170.747 183.879Z" stroke="url(#paint50_linear_40_2)" stroke-width="3"/>
<path opacity="0.525253" d="M170.749 182.287C171.726 174.332 177.714 167.911 185.581 166.382L401.653 124.381C409.521 122.852 417.478 126.562 421.364 133.572L528.078 326.09C531.963 333.1 530.893 341.814 525.428 347.676L375.309 508.659C369.843 514.52 361.224 516.195 353.96 512.808L154.467 419.783C147.204 416.396 142.947 408.717 143.924 400.762L170.749 182.287Z" stroke="url(#paint51_linear_40_2)" stroke-width="3"/>
<path opacity="0.535354" d="M170.789 180.745C171.905 172.809 178.004 166.493 185.897 165.101L402.175 126.965C410.067 125.574 417.958 129.423 421.721 136.5L524.824 330.408C528.587 337.484 527.365 346.179 521.798 351.944L369.241 509.922C363.673 515.687 355.026 517.211 347.823 513.698L150.435 417.425C143.231 413.912 139.109 406.159 140.225 398.223L170.789 180.745Z" stroke="url(#paint52_linear_40_2)" stroke-width="3"/>
<path opacity="0.545455" d="M170.865 179.255C172.118 171.339 178.327 165.131 186.243 163.877L402.658 129.6C410.574 128.347 418.397 132.332 422.035 139.474L521.512 334.705C525.15 341.846 523.776 350.518 518.109 356.185L363.173 511.122C357.506 516.789 348.833 518.162 341.692 514.524L146.46 415.048C139.32 411.41 135.333 403.587 136.587 395.671L170.865 179.255Z" stroke="url(#paint53_linear_40_2)" stroke-width="3"/>
<path opacity="0.555556" d="M170.975 177.816C172.367 169.923 178.683 163.824 186.62 162.709L403.103 132.284C411.04 131.168 418.792 135.29 422.306 142.494L518.139 338.981C521.653 346.185 520.128 354.832 514.363 360.399L357.107 512.259C351.342 517.827 342.647 519.048 335.57 515.286L142.547 412.653C135.471 408.891 131.622 400.999 133.014 393.106L170.975 177.816Z" stroke="url(#paint54_linear_40_2)" stroke-width="3"/>
<path opacity="0.565657" d="M171.12 176.43C172.65 168.563 179.071 162.575 187.026 161.598L403.51 135.017C411.465 134.04 419.145 138.297 422.532 145.561L514.71 343.236C518.097 350.499 516.421 359.118 510.56 364.584L351.044 513.335C345.183 518.801 336.468 519.871 329.458 515.986L138.695 410.243C131.685 406.358 127.974 398.401 129.503 390.533L171.12 176.43Z" stroke="url(#paint55_linear_40_2)" stroke-width="3"/>
<path opacity="0.575758" d="M171.299 175.095C172.965 167.256 179.49 161.38 187.461 160.543L403.877 137.797C411.848 136.959 419.452 141.349 422.712 148.671L511.221 347.466C514.481 354.788 512.656 363.375 506.7 368.738L344.985 514.347C339.029 519.71 330.296 520.628 323.356 516.621L134.901 407.817C127.96 403.81 124.389 395.788 126.055 387.949L171.299 175.095Z" stroke="url(#paint56_linear_40_2)" stroke-width="3"/>
<path opacity="0.585859" d="M171.509 173.814C173.312 166.005 179.939 160.245 187.923 159.546L404.204 140.624C412.188 139.926 419.714 144.448 422.846 151.825L507.676 351.673C510.808 359.051 508.833 367.606 502.784 372.864L338.931 515.3C332.882 520.558 324.135 521.323 317.266 517.195L131.168 405.377C124.298 401.249 120.868 393.166 122.671 385.357L171.509 173.814Z" stroke="url(#paint57_linear_40_2)" stroke-width="3"/>
<path opacity="0.59596" d="M171.751 172.587C173.689 164.81 180.415 159.166 188.411 158.607L404.489 143.497C412.484 142.938 419.93 147.591 422.932 155.022L504.075 355.855C507.077 363.286 504.953 371.806 498.813 376.958L332.883 516.189C326.744 521.341 317.985 521.954 311.188 517.707L127.495 402.923C120.699 398.676 117.409 390.535 119.348 382.759L171.751 172.587Z" stroke="url(#paint58_linear_40_2)" stroke-width="3"/>
<path opacity="0.606061" d="M172.023 171.413C174.097 163.671 180.921 158.146 188.924 157.726L404.733 146.417C412.736 145.997 420.1 150.779 422.972 158.261L500.417 360.012C503.289 367.495 501.017 375.976 494.788 381.019L326.843 517.018C320.615 522.062 311.846 522.522 305.125 518.157L123.884 400.458C117.163 396.093 114.016 387.896 116.091 380.154L172.023 171.413Z" stroke="url(#paint59_linear_40_2)" stroke-width="3"/>
<path opacity="0.616162" d="M172.324 170.293C174.533 162.589 181.452 157.184 189.461 156.904L404.933 149.379C412.943 149.1 420.222 154.009 422.963 161.541L496.704 364.141C499.445 371.673 497.025 380.113 490.709 385.047L320.812 517.786C314.496 522.72 305.721 523.027 299.077 518.545L120.333 397.981C113.689 393.499 110.686 385.249 112.895 377.545L172.324 170.293Z" stroke="url(#paint60_linear_40_2)" stroke-width="3"/>
<path opacity="0.626263" d="M172.652 169.229C174.996 161.565 182.008 156.281 190.021 156.141L405.091 152.387C413.104 152.247 420.296 157.283 422.906 164.861L492.936 368.244C495.545 375.822 492.978 384.218 486.577 389.042L314.789 518.493C308.388 523.316 299.61 523.47 293.044 518.873L116.843 395.496C110.277 390.899 107.419 382.597 109.762 374.932L172.652 169.229Z" stroke="url(#paint61_linear_40_2)" stroke-width="3"/>
<path opacity="0.636364" d="M173.008 168.22C175.485 160.598 182.588 155.437 190.603 155.437L405.203 155.436C413.218 155.436 420.321 160.597 422.798 168.219L489.113 372.317C491.59 379.94 488.877 388.29 482.393 393.001L308.777 519.14C302.293 523.851 293.513 523.851 287.029 519.14L113.413 393.001C106.929 388.29 104.216 379.939 106.693 372.317L173.008 168.22Z" stroke="url(#paint62_linear_40_2)" stroke-width="3"/>
<path opacity="0.646465" d="M173.391 167.266C176 159.688 183.192 154.652 191.206 154.792L405.272 158.528C413.285 158.667 420.298 163.952 422.641 171.617L485.237 376.361C487.58 384.025 484.722 392.327 478.157 396.924L302.777 519.726C296.212 524.323 287.433 524.17 281.032 519.347L110.045 390.499C103.644 385.675 101.076 377.279 103.685 369.701L173.391 167.266Z" stroke="url(#paint63_linear_40_2)" stroke-width="3"/>
<path opacity="0.656566" d="M173.797 166.368C176.539 158.837 183.817 153.927 191.827 154.207L405.295 161.661C413.305 161.941 420.224 167.346 422.433 175.05L481.308 380.374C483.518 388.078 480.514 396.329 473.87 400.81L296.789 520.253C290.145 524.735 281.37 524.428 275.055 519.494L106.737 387.99C100.421 383.056 98.0012 374.616 100.742 367.085L173.797 166.368Z" stroke="url(#paint64_linear_40_2)" stroke-width="3"/>
<path opacity="0.666667" d="M174.228 165.525C177.1 158.043 184.464 153.261 192.467 153.68L405.272 164.833C413.276 165.252 420.1 170.778 422.174 178.519L477.327 384.355C479.402 392.096 476.255 400.293 469.533 404.658L290.816 520.719C284.094 525.084 275.326 524.625 269.097 519.581L103.49 385.475C97.2613 380.431 94.989 371.95 97.8612 364.468L174.228 165.525Z" stroke="url(#paint65_linear_40_2)" stroke-width="3"/>
<path opacity="0.676768" d="M174.681 164.74C177.684 157.309 185.13 152.656 193.125 153.215L405.203 168.044C413.198 168.604 419.923 174.248 421.862 182.024L473.294 388.305C475.233 396.081 471.943 404.222 465.147 408.469L284.856 521.127C278.059 525.374 269.3 524.762 263.161 519.61L100.303 382.957C94.1633 377.805 92.0392 369.286 95.0415 361.855L174.681 164.74Z" stroke="url(#paint66_linear_40_2)" stroke-width="3"/>
<path opacity="0.686869" d="M175.158 164.011C178.289 156.633 185.815 152.111 193.799 152.809L405.086 171.294C413.07 171.993 419.696 177.753 421.499 185.562L469.21 392.221C471.013 400.03 467.582 408.112 460.713 412.24L278.913 521.476C272.043 525.604 263.296 524.839 257.247 519.581L97.1773 380.434C91.1288 375.176 89.1537 366.621 92.2852 359.244L175.158 164.011Z" stroke="url(#paint67_linear_40_2)" stroke-width="3"/>
<path opacity="0.69697" d="M175.654 163.338C178.913 156.017 186.517 151.627 194.488 152.464L404.921 174.582C412.892 175.42 419.417 181.295 421.083 189.134L465.076 396.103C466.742 403.942 463.171 411.963 456.231 415.97L272.986 521.767C266.045 525.774 257.313 524.856 251.357 519.493L94.113 377.911C88.1569 372.548 86.3316 363.96 89.5915 356.638L175.654 163.338Z" stroke="url(#paint68_linear_40_2)" stroke-width="3"/>
<path opacity="0.707071" d="M176.169 162.724C179.556 155.461 187.235 151.204 195.19 152.181L404.708 177.906C412.663 178.883 419.084 184.871 420.614 192.738L460.892 399.951C462.421 407.818 458.711 415.776 451.701 419.662L267.076 522.001C260.066 525.886 251.352 524.816 245.49 519.35L91.1075 375.386C85.246 369.92 83.5709 361.302 86.958 354.038L176.169 162.724Z" stroke="url(#paint69_linear_40_2)" stroke-width="3"/>
<path opacity="0.717172" d="M176.704 162.166C180.218 154.963 187.97 150.841 195.907 151.956L404.446 181.265C412.383 182.38 418.699 188.479 420.091 196.372L456.659 403.763C458.051 411.656 454.202 419.547 447.126 423.31L261.185 522.176C254.109 525.938 245.415 524.716 239.65 519.149L88.1636 372.861C82.3984 367.293 80.8739 358.646 84.3873 351.443L176.704 162.166Z" stroke="url(#paint70_linear_40_2)" stroke-width="3"/>
<path opacity="0.727273" d="M177.256 161.667C180.895 154.526 188.718 150.54 196.634 151.794L404.135 184.658C412.051 185.912 418.259 192.121 419.513 200.036L452.379 407.539C453.632 415.455 449.646 423.278 442.505 426.917L255.315 522.295C248.174 525.933 239.502 524.559 233.835 518.892L85.2797 370.337C79.6127 364.67 78.2384 355.998 81.8769 348.857L177.256 161.667Z" stroke="url(#paint71_linear_40_2)" stroke-width="3"/>
<path opacity="0.737374" d="M177.824 161.225C181.587 154.149 189.478 150.3 197.371 151.691L403.774 188.086C411.667 189.478 417.767 195.793 418.882 203.73L448.051 411.277C449.167 419.214 445.044 426.966 437.841 430.48L249.465 522.357C242.261 525.87 233.615 524.345 228.048 518.58L82.4557 367.816C76.8883 362.051 75.6666 353.356 79.4292 346.28L177.824 161.225Z" stroke="url(#paint72_linear_40_2)" stroke-width="3"/>
<path opacity="0.747475" d="M178.408 160.842C182.294 153.832 190.251 150.122 198.118 151.651L403.363 191.546C411.23 193.075 417.218 199.497 418.195 207.451L443.676 414.979C444.653 422.934 440.396 430.613 433.132 434L243.636 522.364C236.373 525.751 227.754 524.075 222.288 518.214L79.6919 365.298C74.2259 359.437 73.1561 350.722 77.0417 343.712L178.408 160.842Z" stroke="url(#paint73_linear_40_2)" stroke-width="3"/>
<path opacity="0.757576" d="M179.007 160.515C183.014 153.574 191.035 150.003 198.875 151.669L402.901 195.036C410.74 196.703 416.615 203.228 417.453 211.198L439.256 418.64C440.094 426.611 435.704 434.215 428.382 437.475L237.83 522.314C230.509 525.574 221.921 523.748 216.558 517.792L76.9869 362.784C71.6242 356.828 70.7066 348.095 74.7138 341.155L179.007 160.515Z" stroke="url(#paint74_linear_40_2)" stroke-width="3"/>
<path opacity="0.767677" d="M179.618 160.248C183.746 153.378 191.828 149.947 199.637 151.75L402.387 198.558C410.196 200.361 415.957 206.988 416.655 214.972L434.791 422.264C435.489 430.248 430.967 437.773 423.59 440.905L232.048 522.21C224.671 525.341 216.116 523.366 210.858 517.317L74.3425 360.275C69.0845 354.226 68.3194 345.479 72.4472 338.609L179.618 160.248Z" stroke="url(#paint75_linear_40_2)" stroke-width="3"/>
<path opacity="0.777778" d="M180.241 160.039C184.489 153.243 192.629 149.953 200.406 151.892L401.822 202.111C409.598 204.05 415.242 210.776 415.802 218.771L430.281 425.847C430.84 433.842 426.188 441.288 418.757 444.29L226.29 522.052C218.859 525.054 210.34 522.93 205.189 516.79L71.7574 357.774C66.6057 351.634 65.9934 342.875 70.2406 336.079L180.241 160.039Z" stroke="url(#paint76_linear_40_2)" stroke-width="3"/>
<path opacity="0.787879" d="M180.877 159.889C185.242 153.167 193.439 150.021 201.181 152.095L401.205 205.692C408.946 207.766 414.472 214.589 414.891 222.593L425.729 429.39C426.149 437.393 421.366 444.757 413.884 447.629L220.557 521.84C213.075 524.712 204.595 522.439 199.551 516.211L69.2303 355.28C64.1866 349.051 63.7274 340.283 68.0923 333.561L180.877 159.889Z" stroke="url(#paint77_linear_40_2)" stroke-width="3"/>
<path opacity="0.79798" d="M181.522 159.796C186.003 153.152 194.254 150.149 201.958 152.358L400.534 209.299C408.239 211.508 413.644 218.426 413.924 226.436L421.133 432.89C421.413 440.9 416.503 448.179 408.972 450.92L214.851 521.574C207.32 524.315 198.879 521.895 193.945 515.58L66.7627 352.793C61.8284 346.477 61.5222 337.702 66.0039 331.058L181.522 159.796Z" stroke="url(#paint78_linear_40_2)" stroke-width="3"/>
<path opacity="0.808081" d="M182.175 159.763C186.772 153.198 195.074 150.339 202.738 152.683L399.812 212.933C407.476 215.277 412.76 222.289 412.9 230.302L416.497 436.349C416.637 444.362 411.6 451.555 404.022 454.164L209.172 521.256C201.594 523.866 193.197 521.299 188.374 514.898L64.3538 350.316C59.5305 343.915 59.3766 335.137 63.9735 328.572L182.175 159.763Z" stroke="url(#paint79_linear_40_2)" stroke-width="3"/>
<path opacity="0.818182" d="M182.837 159.788C187.548 153.304 195.898 150.591 203.52 153.067L399.035 216.593C406.658 219.069 411.818 226.173 411.819 234.187L411.818 439.765C411.818 447.779 406.657 454.883 399.035 457.359L203.52 520.886C195.898 523.362 187.547 520.649 182.837 514.165L62.0017 347.85C57.2911 341.366 57.2911 332.585 62.0019 326.102L182.837 159.788Z" stroke="url(#paint80_linear_40_2)" stroke-width="3"/>
<path opacity="0.828283" d="M183.506 159.871C188.329 153.47 196.726 150.903 204.304 153.512L398.206 220.278C405.784 222.888 410.82 230.08 410.68 238.093L407.101 443.137C406.961 451.151 401.677 458.163 394.013 460.506L197.898 520.464C190.234 522.807 181.932 519.949 177.335 513.384L59.7091 345.396C55.112 338.831 55.2655 330.052 60.0888 323.651L183.506 159.871Z" stroke="url(#paint81_linear_40_2)" stroke-width="3"/>
<path opacity="0.838384" d="M184.18 160.013C189.115 153.697 197.555 151.277 205.086 154.018L397.323 223.986C404.854 226.727 409.763 234.007 409.483 242.016L402.344 446.466C402.064 454.475 396.659 461.394 388.955 463.603L192.306 519.991C184.602 522.2 176.351 519.197 171.869 512.553L57.4727 342.954C52.9911 336.309 53.2977 327.534 58.2319 321.219L184.18 160.013Z" stroke="url(#paint82_linear_40_2)" stroke-width="3"/>
<path opacity="0.848485" d="M184.859 160.214C189.903 153.985 198.384 151.713 205.866 154.585L396.384 227.718C403.866 230.59 408.648 237.953 408.229 245.957L397.549 449.749C397.129 457.753 391.604 464.577 383.862 466.652L186.744 519.469C179.002 521.544 170.805 518.397 166.44 511.676L55.2942 340.525C50.9292 333.804 51.3888 325.036 56.4326 318.807L184.859 160.214Z" stroke="url(#paint83_linear_40_2)" stroke-width="3"/>
<path opacity="0.858586" d="M185.542 160.472C190.694 154.333 199.213 152.209 206.644 155.211L395.391 231.469C402.822 234.472 407.475 241.918 406.916 249.913L392.717 452.987C392.157 460.983 386.513 467.709 378.737 469.647L181.213 518.896C173.436 520.835 165.295 517.546 161.048 510.749L53.1725 338.111C48.9255 331.314 49.538 322.555 54.6897 316.416L185.542 160.472Z" stroke="url(#paint84_linear_40_2)" stroke-width="3"/>
<path opacity="0.868687" d="M186.228 160.79C191.486 154.741 200.041 152.766 207.419 155.897L394.345 235.243C401.722 238.375 406.244 245.901 405.546 253.885L387.847 456.181C387.148 464.165 381.388 470.791 373.579 472.594L175.714 518.275C167.905 520.078 159.823 516.647 155.695 509.777L51.1064 335.714C46.9786 328.844 47.7441 320.097 53.002 314.048L186.228 160.79Z" stroke="url(#paint85_linear_40_2)" stroke-width="3"/>
<path opacity="0.878788" d="M186.915 161.166C192.278 155.21 200.866 153.384 208.188 156.644L393.243 239.036C400.564 242.296 404.955 249.899 404.117 257.87L382.943 459.328C382.105 467.299 376.23 473.824 368.39 475.49L170.249 517.606C162.409 519.273 154.388 515.702 150.381 508.761L49.097 333.332C45.0897 326.391 46.0077 317.659 51.3705 311.703L186.915 161.166Z" stroke="url(#paint86_linear_40_2)" stroke-width="3"/>
<path opacity="0.888889" d="M187.602 161.6C193.068 155.738 201.687 154.063 208.951 157.45L392.086 242.847C399.349 246.234 403.606 253.913 402.629 261.868L378.003 462.428C377.027 470.383 371.039 476.804 363.172 478.334L164.817 516.89C156.95 518.419 148.992 514.709 145.106 507.699L47.1432 330.967C43.2577 323.958 44.327 315.243 49.7929 309.381L187.602 161.6Z" stroke="url(#paint87_linear_40_2)" stroke-width="3"/>
<path opacity="0.89899" d="M188.29 162.091C193.858 156.326 202.504 154.802 209.708 158.315L390.873 246.675C398.076 250.188 402.198 257.941 401.083 265.877L373.031 465.481C371.915 473.418 365.816 479.734 357.923 481.125L159.42 516.127C151.527 517.519 143.635 513.67 139.873 506.593L45.2434 328.621C41.481 321.545 42.703 312.85 48.2704 307.085L188.29 162.091Z" stroke="url(#paint88_linear_40_2)" stroke-width="3"/>
<path opacity="0.909091" d="M188.975 162.642C194.643 156.975 203.315 155.602 210.456 159.24L389.605 250.521C396.746 254.16 400.732 261.983 399.479 269.899L368.026 468.487C366.772 476.403 360.563 482.611 352.647 483.865L154.058 515.319C146.142 516.572 138.319 512.586 134.68 505.445L43.3996 326.296C39.761 319.155 41.1347 310.483 46.8019 304.816L188.975 162.642Z" stroke="url(#paint89_linear_40_2)" stroke-width="3"/>
<path opacity="0.919192" d="M189.658 163.249C195.423 157.682 204.118 156.46 211.195 160.223L388.281 254.381C395.358 258.144 399.207 266.035 397.815 273.928L362.987 471.443C361.596 479.336 355.28 485.435 347.343 486.551L148.732 514.464C140.796 515.579 133.043 511.457 129.53 504.254L41.6086 323.989C38.0953 316.786 39.6202 308.139 45.3853 302.572L189.658 163.249Z" stroke="url(#paint90_linear_40_2)" stroke-width="3"/>
<path opacity="0.929293" d="M190.337 163.915C196.199 158.449 204.914 157.379 211.923 161.264L386.901 258.256C393.911 262.141 397.622 270.099 396.093 277.966L357.919 474.352C356.39 482.219 349.968 488.207 342.014 489.184L143.443 513.565C135.488 514.542 127.809 510.285 124.422 503.021L39.8723 321.704C36.4852 314.441 38.1606 305.822 44.0222 300.356L190.337 163.915Z" stroke="url(#paint91_linear_40_2)" stroke-width="3"/>
<path opacity="0.939394" d="M191.013 164.638C196.969 159.275 205.701 158.357 212.642 162.364L385.466 262.144C392.406 266.151 395.978 274.172 394.312 282.011L352.82 477.211C351.154 485.05 344.629 490.925 336.658 491.763L138.192 512.623C130.221 513.461 122.617 509.071 119.357 501.749L38.1891 319.441C34.9294 312.12 36.755 303.531 42.711 298.169L191.013 164.638Z" stroke="url(#paint92_linear_40_2)" stroke-width="3"/>
<path opacity="0.949495" d="M191.682 165.418C197.73 160.16 206.477 159.395 213.347 163.523L383.974 266.045C390.844 270.173 394.274 278.256 392.472 286.065L347.693 480.021C345.89 487.831 339.263 493.591 331.279 494.289L132.978 511.638C124.994 512.337 117.468 507.815 114.336 500.437L36.5577 317.204C33.4261 309.826 35.4013 301.27 41.45 296.012L191.682 165.418Z" stroke="url(#paint93_linear_40_2)" stroke-width="3"/>
<path opacity="0.959596" d="M192.344 166.255C198.484 161.103 207.242 160.491 214.039 164.738L382.426 269.957C389.222 274.204 392.512 282.345 390.573 290.121L342.537 482.78C340.598 490.557 333.873 496.2 325.878 496.76L127.804 510.61C119.808 511.169 112.362 506.517 109.36 499.086L34.9793 314.987C31.977 307.556 34.1012 299.037 40.2408 293.885L192.344 166.255Z" stroke="url(#paint94_linear_40_2)" stroke-width="3"/>
<path opacity="0.969697" d="M193 167.149C199.228 162.105 207.996 161.645 214.718 166.01L380.821 273.879C387.543 278.244 390.69 286.441 388.615 294.183L337.354 485.49C335.28 493.232 328.456 498.757 320.453 499.176L122.668 509.542C114.665 509.961 107.301 505.179 104.429 497.697L33.4524 312.796C30.5803 305.314 32.8521 296.833 39.0805 291.789L193 167.149Z" stroke="url(#paint95_linear_40_2)" stroke-width="3"/>
<path opacity="0.979798" d="M193.646 168.098C199.961 163.163 208.736 162.857 215.381 167.339L379.161 277.809C385.805 282.291 388.807 290.542 386.598 298.246L332.146 488.148C329.937 495.852 323.018 501.257 315.008 501.537L117.574 508.432C109.564 508.711 102.285 503.802 99.5435 496.27L31.9757 310.629C29.2346 303.098 31.6549 294.658 37.9704 289.724L193.646 168.098Z" stroke="url(#paint96_linear_40_2)" stroke-width="3"/>
<path opacity="0.989899" d="M194.282 169.104C200.683 164.281 209.462 164.128 216.027 168.725L377.444 281.749C384.009 286.346 386.867 294.648 384.523 302.312L326.911 490.755C324.568 498.42 317.555 503.704 309.542 503.844L112.519 507.283C104.506 507.423 97.3134 502.387 94.7041 494.809L30.5501 308.491C27.9409 300.913 30.5081 292.516 36.9088 287.693L194.282 169.104Z" stroke="url(#paint97_linear_40_2)" stroke-width="3"/>
<path d="M194.908 170.166C201.392 165.455 210.172 165.455 216.656 170.166L375.671 285.696C382.154 290.407 384.867 298.758 382.39 306.38L321.653 493.312C319.176 500.934 312.073 506.095 304.058 506.095H107.507C99.4919 506.095 92.3885 500.934 89.9119 493.312L29.1736 306.38C26.697 298.758 29.4105 290.407 35.8943 285.696L194.908 170.166Z" stroke="url(#paint98_linear_40_2)" stroke-width="3"/>
<defs>
<linearGradient id="paint0_linear_40_2" x1="476.014" y1="403.714" x2="437.323" y2="128.418" gradientUnits="userSpaceOnUse">
<stop stop-color="#FF1CF7"/>
<stop offset="1" stop-color="#00F0FF"/>
</linearGradient>
<linearGradient id="paint1_linear_40_2" x1="471.065" y1="404.638" x2="437.247" y2="129.213" gradientUnits="userSpaceOnUse">
<stop stop-color="#FF1CF7"/>
<stop offset="1" stop-color="#00F0FF"/>
</linearGradient>
<linearGradient id="paint2_linear_40_2" x1="466.12" y1="405.521" x2="437.167" y2="130.052" gradientUnits="userSpaceOnUse">
<stop stop-color="#FF1CF7"/>
<stop offset="1" stop-color="#00F0FF"/>
</linearGradient>
<linearGradient id="paint3_linear_40_2" x1="461.179" y1="406.362" x2="437.082" y2="130.935" gradientUnits="userSpaceOnUse">
<stop stop-color="#FF1CF7"/>
<stop offset="1" stop-color="#00F0FF"/>
</linearGradient>
<linearGradient id="paint4_linear_40_2" x1="456.242" y1="407.162" x2="436.992" y2="131.862" gradientUnits="userSpaceOnUse">
<stop stop-color="#FF1CF7"/>
<stop offset="1" stop-color="#00F0FF"/>
</linearGradient>
<linearGradient id="paint5_linear_40_2" x1="451.312" y1="407.918" x2="436.895" y2="132.831" gradientUnits="userSpaceOnUse">
<stop stop-color="#FF1CF7"/>
<stop offset="1" stop-color="#00F0FF"/>
</linearGradient>
<linearGradient id="paint6_linear_40_2" x1="446.388" y1="408.633" x2="436.792" y2="133.843" gradientUnits="userSpaceOnUse">
<stop stop-color="#FF1CF7"/>
<stop offset="1" stop-color="#00F0FF"/>
</linearGradient>
<linearGradient id="paint7_linear_40_2" x1="441.471" y1="409.308" x2="436.681" y2="134.9" gradientUnits="userSpaceOnUse">
<stop stop-color="#FF1CF7"/>
<stop offset="1" stop-color="#00F0FF"/>
</linearGradient>
<linearGradient id="paint8_linear_40_2" x1="436.561" y1="409.941" x2="436.561" y2="135.998" gradientUnits="userSpaceOnUse">
<stop stop-color="#FF1CF7"/>
<stop offset="1" stop-color="#00F0FF"/>
</linearGradient>
<linearGradient id="paint9_linear_40_2" x1="431.66" y1="410.533" x2="436.433" y2="137.139" gradientUnits="userSpaceOnUse">
<stop stop-color="#FF1CF7"/>
<stop offset="1" stop-color="#00F0FF"/>
</linearGradient>
<linearGradient id="paint10_linear_40_2" x1="426.769" y1="411.084" x2="436.294" y2="138.323" gradientUnits="userSpaceOnUse">
<stop stop-color="#FF1CF7"/>
<stop offset="1" stop-color="#00F0FF"/>
</linearGradient>
<linearGradient id="paint11_linear_40_2" x1="421.887" y1="411.595" x2="436.145" y2="139.547" gradientUnits="userSpaceOnUse">
<stop stop-color="#FF1CF7"/>
<stop offset="1" stop-color="#00F0FF"/>
</linearGradient>
<linearGradient id="paint12_linear_40_2" x1="417.016" y1="412.066" x2="435.984" y2="140.814" gradientUnits="userSpaceOnUse">
<stop stop-color="#FF1CF7"/>
<stop offset="1" stop-color="#00F0FF"/>
</linearGradient>
<linearGradient id="paint13_linear_40_2" x1="412.157" y1="412.496" x2="435.811" y2="142.123" gradientUnits="userSpaceOnUse">
<stop stop-color="#FF1CF7"/>
<stop offset="1" stop-color="#00F0FF"/>
</linearGradient>
<linearGradient id="paint14_linear_40_2" x1="407.309" y1="412.887" x2="435.626" y2="143.472" gradientUnits="userSpaceOnUse">
<stop stop-color="#FF1CF7"/>
<stop offset="1" stop-color="#00F0FF"/>
</linearGradient>
<linearGradient id="paint15_linear_40_2" x1="402.475" y1="413.238" x2="435.427" y2="144.862" gradientUnits="userSpaceOnUse">
<stop stop-color="#FF1CF7"/>
<stop offset="1" stop-color="#00F0FF"/>
</linearGradient>
<linearGradient id="paint16_linear_40_2" x1="397.653" y1="413.551" x2="435.214" y2="146.294" gradientUnits="userSpaceOnUse">
<stop stop-color="#FF1CF7"/>
<stop offset="1" stop-color="#00F0FF"/>
</linearGradient>
<linearGradient id="paint17_linear_40_2" x1="392.846" y1="413.825" x2="434.986" y2="147.764" gradientUnits="userSpaceOnUse">
<stop stop-color="#FF1CF7"/>
<stop offset="1" stop-color="#00F0FF"/>
</linearGradient>
<linearGradient id="paint18_linear_40_2" x1="388.054" y1="414.06" x2="434.742" y2="149.275" gradientUnits="userSpaceOnUse">
<stop stop-color="#FF1CF7"/>
<stop offset="1" stop-color="#00F0FF"/>
</linearGradient>
<linearGradient id="paint19_linear_40_2" x1="383.276" y1="414.256" x2="434.482" y2="150.825" gradientUnits="userSpaceOnUse">
<stop stop-color="#FF1CF7"/>
<stop offset="1" stop-color="#00F0FF"/>
</linearGradient>
<linearGradient id="paint20_linear_40_2" x1="378.515" y1="414.417" x2="434.206" y2="152.415" gradientUnits="userSpaceOnUse">
<stop stop-color="#FF1CF7"/>
<stop offset="1" stop-color="#00F0FF"/>
</linearGradient>
<linearGradient id="paint21_linear_40_2" x1="373.771" y1="414.538" x2="433.911" y2="154.042" gradientUnits="userSpaceOnUse">
<stop stop-color="#FF1CF7"/>
<stop offset="1" stop-color="#00F0FF"/>
</linearGradient>
<linearGradient id="paint22_linear_40_2" x1="369.044" y1="414.623" x2="433.598" y2="155.709" gradientUnits="userSpaceOnUse">
<stop stop-color="#FF1CF7"/>
<stop offset="1" stop-color="#00F0FF"/>
</linearGradient>
<linearGradient id="paint23_linear_40_2" x1="364.335" y1="414.672" x2="433.267" y2="157.414" gradientUnits="userSpaceOnUse">
<stop stop-color="#FF1CF7"/>
<stop offset="1" stop-color="#00F0FF"/>
</linearGradient>
<linearGradient id="paint24_linear_40_2" x1="359.644" y1="414.683" x2="432.916" y2="159.155" gradientUnits="userSpaceOnUse">
<stop stop-color="#FF1CF7"/>
<stop offset="1" stop-color="#00F0FF"/>
</linearGradient>
<linearGradient id="paint25_linear_40_2" x1="354.973" y1="414.659" x2="432.544" y2="160.934" gradientUnits="userSpaceOnUse">
<stop stop-color="#FF1CF7"/>
<stop offset="1" stop-color="#00F0FF"/>
</linearGradient>
<linearGradient id="paint26_linear_40_2" x1="350.321" y1="414.6" x2="432.152" y2="162.749" gradientUnits="userSpaceOnUse">
<stop stop-color="#FF1CF7"/>
<stop offset="1" stop-color="#00F0FF"/>
</linearGradient>
<linearGradient id="paint27_linear_40_2" x1="345.69" y1="414.506" x2="431.739" y2="164.601" gradientUnits="userSpaceOnUse">
<stop stop-color="#FF1CF7"/>
<stop offset="1" stop-color="#00F0FF"/>
</linearGradient>
<linearGradient id="paint28_linear_40_2" x1="341.08" y1="414.377" x2="431.303" y2="166.489" gradientUnits="userSpaceOnUse">
<stop stop-color="#FF1CF7"/>
<stop offset="1" stop-color="#00F0FF"/>
</linearGradient>
<linearGradient id="paint29_linear_40_2" x1="336.491" y1="414.214" x2="430.845" y2="168.412" gradientUnits="userSpaceOnUse">
<stop stop-color="#FF1CF7"/>
<stop offset="1" stop-color="#00F0FF"/>
</linearGradient>
<linearGradient id="paint30_linear_40_2" x1="331.924" y1="414.017" x2="430.364" y2="170.37" gradientUnits="userSpaceOnUse">
<stop stop-color="#FF1CF7"/>
<stop offset="1" stop-color="#00F0FF"/>
</linearGradient>
<linearGradient id="paint31_linear_40_2" x1="327.38" y1="413.787" x2="429.859" y2="172.361" gradientUnits="userSpaceOnUse">
<stop stop-color="#FF1CF7"/>
<stop offset="1" stop-color="#00F0FF"/>
</linearGradient>
<linearGradient id="paint32_linear_40_2" x1="322.859" y1="413.524" x2="429.33" y2="174.388" gradientUnits="userSpaceOnUse">
<stop stop-color="#FF1CF7"/>
<stop offset="1" stop-color="#00F0FF"/>
</linearGradient>
<linearGradient id="paint33_linear_40_2" x1="318.362" y1="413.229" x2="428.775" y2="176.447" gradientUnits="userSpaceOnUse">
<stop stop-color="#FF1CF7"/>
<stop offset="1" stop-color="#00F0FF"/>
</linearGradient>
<linearGradient id="paint34_linear_40_2" x1="313.889" y1="412.902" x2="428.196" y2="178.539" gradientUnits="userSpaceOnUse">
<stop stop-color="#FF1CF7"/>
<stop offset="1" stop-color="#00F0FF"/>
</linearGradient>
<linearGradient id="paint35_linear_40_2" x1="309.441" y1="412.544" x2="427.59" y2="180.664" gradientUnits="userSpaceOnUse">
<stop stop-color="#FF1CF7"/>
<stop offset="1" stop-color="#00F0FF"/>
</linearGradient>
<linearGradient id="paint36_linear_40_2" x1="305.018" y1="412.156" x2="426.958" y2="182.82" gradientUnits="userSpaceOnUse">
<stop stop-color="#FF1CF7"/>
<stop offset="1" stop-color="#00F0FF"/>
</linearGradient>
<linearGradient id="paint37_linear_40_2" x1="300.621" y1="411.736" x2="426.299" y2="185.007" gradientUnits="userSpaceOnUse">
<stop stop-color="#FF1CF7"/>
<stop offset="1" stop-color="#00F0FF"/>
</linearGradient>
<linearGradient id="paint38_linear_40_2" x1="296.25" y1="411.287" x2="425.612" y2="187.226" gradientUnits="userSpaceOnUse">
<stop stop-color="#FF1CF7"/>
<stop offset="1" stop-color="#00F0FF"/>
</linearGradient>
<linearGradient id="paint39_linear_40_2" x1="291.906" y1="410.808" x2="424.898" y2="189.473" gradientUnits="userSpaceOnUse">
<stop stop-color="#FF1CF7"/>
<stop offset="1" stop-color="#00F0FF"/>
</linearGradient>
<linearGradient id="paint40_linear_40_2" x1="287.589" y1="410.302" x2="424.154" y2="191.752" gradientUnits="userSpaceOnUse">
<stop stop-color="#FF1CF7"/>
<stop offset="1" stop-color="#00F0FF"/>
</linearGradient>
<linearGradient id="paint41_linear_40_2" x1="283.3" y1="409.767" x2="423.383" y2="194.059" gradientUnits="userSpaceOnUse">
<stop stop-color="#FF1CF7"/>
<stop offset="1" stop-color="#00F0FF"/>
</linearGradient>
<linearGradient id="paint42_linear_40_2" x1="279.039" y1="409.204" x2="422.581" y2="196.394" gradientUnits="userSpaceOnUse">
<stop stop-color="#FF1CF7"/>
<stop offset="1" stop-color="#00F0FF"/>
</linearGradient>
<linearGradient id="paint43_linear_40_2" x1="274.807" y1="408.614" x2="421.75" y2="198.758" gradientUnits="userSpaceOnUse">
<stop stop-color="#FF1CF7"/>
<stop offset="1" stop-color="#00F0FF"/>
</linearGradient>
<linearGradient id="paint44_linear_40_2" x1="270.603" y1="407.998" x2="420.888" y2="201.149" gradientUnits="userSpaceOnUse">
<stop stop-color="#FF1CF7"/>
<stop offset="1" stop-color="#00F0FF"/>
</linearGradient>
<linearGradient id="paint45_linear_40_2" x1="266.429" y1="407.356" x2="419.996" y2="203.566" gradientUnits="userSpaceOnUse">
<stop stop-color="#FF1CF7"/>
<stop offset="1" stop-color="#00F0FF"/>
</linearGradient>
<linearGradient id="paint46_linear_40_2" x1="262.285" y1="406.688" x2="419.073" y2="206.009" gradientUnits="userSpaceOnUse">
<stop stop-color="#FF1CF7"/>
<stop offset="1" stop-color="#00F0FF"/>
</linearGradient>
<linearGradient id="paint47_linear_40_2" x1="258.171" y1="405.996" x2="418.118" y2="208.478" gradientUnits="userSpaceOnUse">
<stop stop-color="#FF1CF7"/>
<stop offset="1" stop-color="#00F0FF"/>
</linearGradient>
<linearGradient id="paint48_linear_40_2" x1="254.087" y1="405.279" x2="417.131" y2="210.972" gradientUnits="userSpaceOnUse">
<stop stop-color="#FF1CF7"/>
<stop offset="1" stop-color="#00F0FF"/>
</linearGradient>
<linearGradient id="paint49_linear_40_2" x1="250.035" y1="404.54" x2="416.112" y2="213.49" gradientUnits="userSpaceOnUse">
<stop stop-color="#FF1CF7"/>
<stop offset="1" stop-color="#00F0FF"/>
</linearGradient>
<linearGradient id="paint50_linear_40_2" x1="246.013" y1="403.777" x2="415.06" y2="216.032" gradientUnits="userSpaceOnUse">
<stop stop-color="#FF1CF7"/>
<stop offset="1" stop-color="#00F0FF"/>
</linearGradient>
<linearGradient id="paint51_linear_40_2" x1="242.024" y1="402.992" x2="413.975" y2="218.596" gradientUnits="userSpaceOnUse">
<stop stop-color="#FF1CF7"/>
<stop offset="1" stop-color="#00F0FF"/>
</linearGradient>
<linearGradient id="paint52_linear_40_2" x1="238.066" y1="402.185" x2="412.857" y2="221.184" gradientUnits="userSpaceOnUse">
<stop stop-color="#FF1CF7"/>
<stop offset="1" stop-color="#00F0FF"/>
</linearGradient>
<linearGradient id="paint53_linear_40_2" x1="234.141" y1="401.357" x2="411.705" y2="223.792" gradientUnits="userSpaceOnUse">
<stop stop-color="#FF1CF7"/>
<stop offset="1" stop-color="#00F0FF"/>
</linearGradient>
<linearGradient id="paint54_linear_40_2" x1="230.248" y1="400.508" x2="410.519" y2="226.422" gradientUnits="userSpaceOnUse">
<stop stop-color="#FF1CF7"/>
<stop offset="1" stop-color="#00F0FF"/>
</linearGradient>
<linearGradient id="paint55_linear_40_2" x1="226.388" y1="399.64" x2="409.299" y2="229.072" gradientUnits="userSpaceOnUse">
<stop stop-color="#FF1CF7"/>
<stop offset="1" stop-color="#00F0FF"/>
</linearGradient>
<linearGradient id="paint56_linear_40_2" x1="222.561" y1="398.752" x2="408.044" y2="231.742" gradientUnits="userSpaceOnUse">
<stop stop-color="#FF1CF7"/>
<stop offset="1" stop-color="#00F0FF"/>
</linearGradient>
<linearGradient id="paint57_linear_40_2" x1="218.768" y1="397.846" x2="406.755" y2="234.431" gradientUnits="userSpaceOnUse">
<stop stop-color="#FF1CF7"/>
<stop offset="1" stop-color="#00F0FF"/>
</linearGradient>
<linearGradient id="paint58_linear_40_2" x1="215.008" y1="396.921" x2="405.43" y2="237.138" gradientUnits="userSpaceOnUse">
<stop stop-color="#FF1CF7"/>
<stop offset="1" stop-color="#00F0FF"/>
</linearGradient>
<linearGradient id="paint59_linear_40_2" x1="211.283" y1="395.98" x2="404.07" y2="239.864" gradientUnits="userSpaceOnUse">
<stop stop-color="#FF1CF7"/>
<stop offset="1" stop-color="#00F0FF"/>
</linearGradient>
<linearGradient id="paint60_linear_40_2" x1="207.591" y1="395.021" x2="402.674" y2="242.606" gradientUnits="userSpaceOnUse">
<stop stop-color="#FF1CF7"/>
<stop offset="1" stop-color="#00F0FF"/>
</linearGradient>
<linearGradient id="paint61_linear_40_2" x1="203.934" y1="394.047" x2="401.242" y2="245.365" gradientUnits="userSpaceOnUse">
<stop stop-color="#FF1CF7"/>
<stop offset="1" stop-color="#00F0FF"/>
</linearGradient>
<linearGradient id="paint62_linear_40_2" x1="200.312" y1="393.058" x2="399.774" y2="248.14" gradientUnits="userSpaceOnUse">
<stop stop-color="#FF1CF7"/>
<stop offset="1" stop-color="#00F0FF"/>
</linearGradient>
<linearGradient id="paint63_linear_40_2" x1="196.725" y1="392.053" x2="398.27" y2="250.929" gradientUnits="userSpaceOnUse">
<stop stop-color="#FF1CF7"/>
<stop offset="1" stop-color="#00F0FF"/>
</linearGradient>
<linearGradient id="paint64_linear_40_2" x1="193.172" y1="391.034" x2="396.729" y2="253.734" gradientUnits="userSpaceOnUse">
<stop stop-color="#FF1CF7"/>
<stop offset="1" stop-color="#00F0FF"/>
</linearGradient>
<linearGradient id="paint65_linear_40_2" x1="189.655" y1="390.002" x2="395.152" y2="256.551" gradientUnits="userSpaceOnUse">
<stop stop-color="#FF1CF7"/>
<stop offset="1" stop-color="#00F0FF"/>
</linearGradient>
<linearGradient id="paint66_linear_40_2" x1="186.173" y1="388.957" x2="393.537" y2="259.382" gradientUnits="userSpaceOnUse">
<stop stop-color="#FF1CF7"/>
<stop offset="1" stop-color="#00F0FF"/>
</linearGradient>
<linearGradient id="paint67_linear_40_2" x1="182.727" y1="387.9" x2="391.886" y2="262.224" gradientUnits="userSpaceOnUse">
<stop stop-color="#FF1CF7"/>
<stop offset="1" stop-color="#00F0FF"/>
</linearGradient>
<linearGradient id="paint68_linear_40_2" x1="179.317" y1="386.831" x2="390.198" y2="265.079" gradientUnits="userSpaceOnUse">
<stop stop-color="#FF1CF7"/>
<stop offset="1" stop-color="#00F0FF"/>
</linearGradient>
<linearGradient id="paint69_linear_40_2" x1="175.942" y1="385.752" x2="388.472" y2="267.945" gradientUnits="userSpaceOnUse">
<stop stop-color="#FF1CF7"/>
<stop offset="1" stop-color="#00F0FF"/>
</linearGradient>
<linearGradient id="paint70_linear_40_2" x1="172.603" y1="384.662" x2="386.709" y2="270.82" gradientUnits="userSpaceOnUse">
<stop stop-color="#FF1CF7"/>
<stop offset="1" stop-color="#00F0FF"/>
</linearGradient>
<linearGradient id="paint71_linear_40_2" x1="169.3" y1="383.564" x2="384.909" y2="273.706" gradientUnits="userSpaceOnUse">
<stop stop-color="#FF1CF7"/>
<stop offset="1" stop-color="#00F0FF"/>
</linearGradient>
<linearGradient id="paint72_linear_40_2" x1="166.034" y1="382.456" x2="383.071" y2="276.6" gradientUnits="userSpaceOnUse">
<stop stop-color="#FF1CF7"/>
<stop offset="1" stop-color="#00F0FF"/>
</linearGradient>
<linearGradient id="paint73_linear_40_2" x1="162.804" y1="381.341" x2="381.195" y2="279.503" gradientUnits="userSpaceOnUse">
<stop stop-color="#FF1CF7"/>
<stop offset="1" stop-color="#00F0FF"/>
</linearGradient>
<linearGradient id="paint74_linear_40_2" x1="159.609" y1="380.217" x2="379.281" y2="282.412" gradientUnits="userSpaceOnUse">
<stop stop-color="#FF1CF7"/>
<stop offset="1" stop-color="#00F0FF"/>
</linearGradient>
<linearGradient id="paint75_linear_40_2" x1="156.452" y1="379.087" x2="377.33" y2="285.329" gradientUnits="userSpaceOnUse">
<stop stop-color="#FF1CF7"/>
<stop offset="1" stop-color="#00F0FF"/>
</linearGradient>
<linearGradient id="paint76_linear_40_2" x1="153.33" y1="377.951" x2="375.341" y2="288.253" gradientUnits="userSpaceOnUse">
<stop stop-color="#FF1CF7"/>
<stop offset="1" stop-color="#00F0FF"/>
</linearGradient>
<linearGradient id="paint77_linear_40_2" x1="150.245" y1="376.81" x2="373.314" y2="291.182" gradientUnits="userSpaceOnUse">
<stop stop-color="#FF1CF7"/>
<stop offset="1" stop-color="#00F0FF"/>
</linearGradient>
<linearGradient id="paint78_linear_40_2" x1="147.197" y1="375.662" x2="371.249" y2="294.114" gradientUnits="userSpaceOnUse">
<stop stop-color="#FF1CF7"/>
<stop offset="1" stop-color="#00F0FF"/>
</linearGradient>
<linearGradient id="paint79_linear_40_2" x1="144.185" y1="374.512" x2="369.146" y2="297.052" gradientUnits="userSpaceOnUse">
<stop stop-color="#FF1CF7"/>
<stop offset="1" stop-color="#00F0FF"/>
</linearGradient>
<linearGradient id="paint80_linear_40_2" x1="141.209" y1="373.358" x2="367.006" y2="299.992" gradientUnits="userSpaceOnUse">
<stop stop-color="#FF1CF7"/>
<stop offset="1" stop-color="#00F0FF"/>
</linearGradient>
<linearGradient id="paint81_linear_40_2" x1="138.27" y1="372.201" x2="364.827" y2="302.935" gradientUnits="userSpaceOnUse">
<stop stop-color="#FF1CF7"/>
<stop offset="1" stop-color="#00F0FF"/>
</linearGradient>
<linearGradient id="paint82_linear_40_2" x1="135.367" y1="371.041" x2="362.611" y2="305.88" gradientUnits="userSpaceOnUse">
<stop stop-color="#FF1CF7"/>
<stop offset="1" stop-color="#00F0FF"/>
</linearGradient>
<linearGradient id="paint83_linear_40_2" x1="132.5" y1="369.881" x2="360.357" y2="308.827" gradientUnits="userSpaceOnUse">
<stop stop-color="#FF1CF7"/>
<stop offset="1" stop-color="#00F0FF"/>
</linearGradient>
<linearGradient id="paint84_linear_40_2" x1="129.67" y1="368.719" x2="358.066" y2="311.773" gradientUnits="userSpaceOnUse">
<stop stop-color="#FF1CF7"/>
<stop offset="1" stop-color="#00F0FF"/>
</linearGradient>
<linearGradient id="paint85_linear_40_2" x1="126.876" y1="367.557" x2="355.736" y2="314.72" gradientUnits="userSpaceOnUse">
<stop stop-color="#FF1CF7"/>
<stop offset="1" stop-color="#00F0FF"/>
</linearGradient>
<linearGradient id="paint86_linear_40_2" x1="124.118" y1="366.396" x2="353.37" y2="317.667" gradientUnits="userSpaceOnUse">
<stop stop-color="#FF1CF7"/>
<stop offset="1" stop-color="#00F0FF"/>
</linearGradient>
<linearGradient id="paint87_linear_40_2" x1="121.396" y1="365.236" x2="350.965" y2="320.612" gradientUnits="userSpaceOnUse">
<stop stop-color="#FF1CF7"/>
<stop offset="1" stop-color="#00F0FF"/>
</linearGradient>
<linearGradient id="paint88_linear_40_2" x1="118.71" y1="364.077" x2="348.524" y2="323.555" gradientUnits="userSpaceOnUse">
<stop stop-color="#FF1CF7"/>
<stop offset="1" stop-color="#00F0FF"/>
</linearGradient>
<linearGradient id="paint89_linear_40_2" x1="116.06" y1="362.922" x2="346.045" y2="326.496" gradientUnits="userSpaceOnUse">
<stop stop-color="#FF1CF7"/>
<stop offset="1" stop-color="#00F0FF"/>
</linearGradient>
<linearGradient id="paint90_linear_40_2" x1="113.446" y1="361.768" x2="343.529" y2="329.432" gradientUnits="userSpaceOnUse">
<stop stop-color="#FF1CF7"/>
<stop offset="1" stop-color="#00F0FF"/>
</linearGradient>
<linearGradient id="paint91_linear_40_2" x1="110.867" y1="360.618" x2="340.976" y2="332.365" gradientUnits="userSpaceOnUse">
<stop stop-color="#FF1CF7"/>
<stop offset="1" stop-color="#00F0FF"/>
</linearGradient>
<linearGradient id="paint92_linear_40_2" x1="108.324" y1="359.473" x2="338.386" y2="335.293" gradientUnits="userSpaceOnUse">
<stop stop-color="#FF1CF7"/>
<stop offset="1" stop-color="#00F0FF"/>
</linearGradient>
<linearGradient id="paint93_linear_40_2" x1="105.816" y1="358.334" x2="335.76" y2="338.216" gradientUnits="userSpaceOnUse">
<stop stop-color="#FF1CF7"/>
<stop offset="1" stop-color="#00F0FF"/>
</linearGradient>
<linearGradient id="paint94_linear_40_2" x1="103.343" y1="357.199" x2="333.097" y2="341.133" gradientUnits="userSpaceOnUse">
<stop stop-color="#FF1CF7"/>
<stop offset="1" stop-color="#00F0FF"/>
</linearGradient>
<linearGradient id="paint95_linear_40_2" x1="100.906" y1="356.07" x2="330.398" y2="344.043" gradientUnits="userSpaceOnUse">
<stop stop-color="#FF1CF7"/>
<stop offset="1" stop-color="#00F0FF"/>
</linearGradient>
<linearGradient id="paint96_linear_40_2" x1="98.5026" y1="354.948" x2="327.663" y2="346.945" gradientUnits="userSpaceOnUse">
<stop stop-color="#FF1CF7"/>
<stop offset="1" stop-color="#00F0FF"/>
</linearGradient>
<linearGradient id="paint97_linear_40_2" x1="96.1339" y1="353.833" x2="324.892" y2="349.84" gradientUnits="userSpaceOnUse">
<stop stop-color="#FF1CF7"/>
<stop offset="1" stop-color="#00F0FF"/>
</linearGradient>
<linearGradient id="paint98_linear_40_2" x1="93.8" y1="352.727" x2="322.086" y2="352.727" gradientUnits="userSpaceOnUse">
<stop stop-color="#FF1CF7"/>
<stop offset="1" stop-color="#00F0FF"/>
</linearGradient>
</defs>
</svg>
