<svg width="31" height="31" viewBox="0 0 31 31" fill="none" xmlns="http://www.w3.org/2000/svg">
<circle cx="15.5" cy="15.5" r="15.5" fill="white"/>
<path d="M15.5295 31H15.4613C6.93605 31 0 24.0619 0 15.5341V15.4659C0 6.93809 6.93605 0 15.4613 0H15.5295C24.0548 0 30.9909 6.93809 30.9909 15.4659V15.5341C30.9909 24.0619 24.0548 31 15.5295 31ZM15.4613 1.04932C7.51405 1.04932 1.04901 7.51627 1.04901 15.4659V15.5341C1.04901 23.4837 7.51405 29.9507 15.4613 29.9507H15.5295C23.4768 29.9507 29.9419 23.4837 29.9419 15.5341V15.4659C29.9419 7.51627 23.4768 1.04932 15.5295 1.04932H15.4613Z" fill="#00E510"/>
<path d="M18.4144 19.8804C14.5823 19.8804 11.4647 16.7607 11.4636 12.9276C11.4647 11.9559 12.2556 11.1658 13.2249 11.1658C13.3246 11.1658 13.4232 11.1742 13.5176 11.191C13.7253 11.2256 13.9225 11.2959 14.104 11.4019C14.1302 11.4176 14.148 11.4428 14.1522 11.4722L14.5572 14.0252C14.5624 14.0545 14.553 14.085 14.533 14.107C14.3096 14.3546 14.0243 14.533 13.7064 14.6222L13.5533 14.6652L13.6109 14.8132C14.1333 16.1437 15.1971 17.2067 16.5282 17.7314L16.6762 17.7901L16.7192 17.6369C16.8083 17.319 16.9867 17.0336 17.2342 16.81C17.2521 16.7933 17.2762 16.7849 17.3003 16.7849C17.3056 16.7849 17.3108 16.7849 17.3171 16.7859L19.8693 17.1909C19.8998 17.1962 19.9249 17.213 19.9407 17.2392C20.0456 17.4207 20.1159 17.6191 20.1515 17.8268C20.1683 17.9192 20.1757 18.0168 20.1757 18.1185C20.1757 19.0892 19.3857 19.8793 18.4144 19.8804Z" fill="#00E510"/>
<path d="M25.2098 14.6591C25.0032 12.3233 23.9332 10.1565 22.1971 8.55837C20.4505 6.95081 18.1846 6.06519 15.8149 6.06519C10.6139 6.06519 6.38222 10.2981 6.38222 15.5007C6.38222 17.2467 6.8637 18.9477 7.77529 20.4293L5.74231 24.9309L12.2514 24.2373C13.3833 24.7011 14.5813 24.9361 15.8138 24.9361C16.138 24.9361 16.4705 24.9193 16.8041 24.8847C17.0978 24.8532 17.3947 24.8071 17.6863 24.7483C22.0418 23.8679 25.2214 20.0012 25.2465 15.551V15.5007C25.2465 15.2173 25.234 14.934 25.2088 14.6602L25.2098 14.6591ZM12.5021 22.2614L8.90089 22.6455L9.97612 20.2625L9.76107 19.9739C9.74534 19.9529 9.7296 19.9319 9.71177 19.9078C8.77815 18.6182 8.28511 17.0946 8.28511 15.5017C8.28511 11.3485 11.6629 7.9697 15.8149 7.9697C19.7046 7.9697 23.0017 11.0054 23.3195 14.8805C23.3363 15.0883 23.3457 15.2971 23.3457 15.5028C23.3457 15.5615 23.3447 15.6192 23.3436 15.6811C23.2639 19.1554 20.8376 22.1061 17.443 22.8574C17.1839 22.9151 16.9185 22.9592 16.6541 22.9875C16.3793 23.019 16.0971 23.0348 15.817 23.0348C14.8194 23.0348 13.8501 22.8417 12.9343 22.4597C12.8326 22.4188 12.7329 22.3747 12.6395 22.3296L12.5032 22.2635L12.5021 22.2614Z" fill="#00E510"/>
</svg>
